<svg width="25" height="25" viewBox="0 0 25 25" fill="none" xmlns="http://www.w3.org/2000/svg">
<path fill-rule="evenodd" clip-rule="evenodd" d="M7.25937 2.57187C7.33194 2.49911 7.41815 2.44139 7.51306 2.402C7.60798 2.36262 7.70973 2.34235 7.81249 2.34235C7.91525 2.34235 8.01701 2.36262 8.11192 2.402C8.20683 2.44139 8.29305 2.49911 8.36562 2.57187L17.7406 11.9469C17.8134 12.0194 17.8711 12.1057 17.9105 12.2006C17.9499 12.2955 17.9701 12.3972 17.9701 12.5C17.9701 12.6028 17.9499 12.7045 17.9105 12.7994C17.8711 12.8943 17.8134 12.9805 17.7406 13.0531L8.36562 22.4281C8.21892 22.5748 8.01995 22.6572 7.81249 22.6572C7.60503 22.6572 7.40607 22.5748 7.25937 22.4281C7.11267 22.2814 7.03026 22.0825 7.03026 21.875C7.03026 21.6675 7.11267 21.4686 7.25937 21.3219L16.0828 12.5L7.25937 3.67812C7.18661 3.60555 7.12889 3.51933 7.0895 3.42442C7.05012 3.32951 7.02985 3.22775 7.02985 3.12499C7.02985 3.02223 7.05012 2.92048 7.0895 2.82557C7.12889 2.73065 7.18661 2.64444 7.25937 2.57187Z" fill="white"/>
</svg>
