<svg width="25" height="25" viewBox="0 0 25 25" fill="none" xmlns="http://www.w3.org/2000/svg">
<path fill-rule="evenodd" clip-rule="evenodd" d="M17.7406 2.57187C17.8134 2.64444 17.8711 2.73065 17.9105 2.82557C17.9499 2.92048 17.9701 3.02223 17.9701 3.12499C17.9701 3.22775 17.9499 3.32951 17.9105 3.42442C17.8711 3.51933 17.8134 3.60555 17.7406 3.67812L8.91718 12.5L17.7406 21.3219C17.8873 21.4686 17.9697 21.6675 17.9697 21.875C17.9697 22.0825 17.8873 22.2814 17.7406 22.4281C17.5939 22.5748 17.395 22.6572 17.1875 22.6572C16.98 22.6572 16.7811 22.5748 16.6344 22.4281L7.25937 13.0531C7.18661 12.9805 7.12889 12.8943 7.0895 12.7994C7.05012 12.7045 7.02985 12.6028 7.02985 12.5C7.02985 12.3972 7.05012 12.2955 7.0895 12.2006C7.12889 12.1057 7.18661 12.0194 7.25937 11.9469L16.6344 2.57187C16.7069 2.49911 16.7932 2.44139 16.8881 2.402C16.983 2.36262 17.0847 2.34235 17.1875 2.34235C17.2903 2.34235 17.392 2.36262 17.4869 2.402C17.5818 2.44139 17.668 2.49911 17.7406 2.57187Z" fill="white"/>
</svg>
