<svg width="50" height="50" viewBox="0 0 50 50" fill="none" xmlns="http://www.w3.org/2000/svg">
<path d="M41.4062 18.75H29.6875C28.0299 18.75 26.4402 18.0915 25.2681 16.9194C24.096 15.7473 23.4375 14.1576 23.4375 12.5C23.4375 10.8424 24.096 9.25269 25.2681 8.08059C26.4402 6.90849 28.0299 6.25001 29.6875 6.25001H29.8187C30.5146 5.27798 31.4334 4.48694 32.498 3.94321C33.5626 3.39948 34.7421 3.1189 35.9375 3.12501C37.5138 3.12486 39.053 3.60325 40.3514 4.4969C41.6499 5.39055 42.6465 6.65734 43.2094 8.12969C44.2828 8.49646 45.214 9.19095 45.8717 10.1152C46.5294 11.0395 46.8803 12.1469 46.875 13.2813C46.8733 14.7312 46.2966 16.1212 45.2714 17.1464C44.2462 18.1716 42.8561 18.7484 41.4062 18.75V18.75ZM29.6875 9.37501C28.8587 9.37501 28.0638 9.70425 27.4778 10.2903C26.8917 10.8763 26.5625 11.6712 26.5625 12.5C26.5625 13.3288 26.8917 14.1237 27.4778 14.7097C28.0638 15.2958 28.8587 15.625 29.6875 15.625H41.4062C42.0276 15.6242 42.6233 15.377 43.0626 14.9376C43.502 14.4983 43.7492 13.9026 43.75 13.2813C43.751 12.7211 43.5494 12.1794 43.1824 11.7561C42.8154 11.3329 42.3078 11.0565 41.7531 10.9781L40.7203 10.8234L40.4672 9.80938C40.2514 8.89566 39.7625 8.06934 39.0654 7.44047C38.3683 6.8116 37.4961 6.41002 36.5651 6.28921C35.634 6.16839 34.6883 6.33408 33.8538 6.76421C33.0192 7.19433 32.3356 7.86848 31.8938 8.69688L31.4281 9.37501H29.6875ZM20.3125 43.75V38.8875C23.0966 38.5643 25.689 37.3075 27.6672 35.3219C27.9601 35.0289 28.1247 34.6315 28.1247 34.2172C28.1247 33.8029 27.9601 33.4055 27.6672 33.1125L21.0375 26.4844L25 22.5219L22.7906 20.3125L18.8281 24.275L12.2 17.6453C11.907 17.3524 11.5096 17.1878 11.0953 17.1878C10.681 17.1878 10.2836 17.3524 9.99063 17.6453C7.64676 19.9895 6.33001 23.1687 6.33001 26.4836C6.33001 29.7985 7.64676 32.9777 9.99063 35.3219C10.2438 35.5766 10.5094 35.8109 10.7797 36.0406L6.925 43.75H3.125V46.875H46.875V43.75H20.3125ZM17.1875 43.75H10.4188L13.4219 37.7453C14.6092 38.317 15.8806 38.6947 17.1875 38.8641V43.75ZM12.2 33.1125C10.6335 31.5456 9.6722 29.4748 9.48631 27.267C9.30042 25.0592 9.90196 22.8568 11.1844 21.05L24.2625 34.1266C22.456 35.4095 20.2537 36.0115 18.0458 35.8259C15.8379 35.6403 13.7669 34.679 12.2 33.1125V33.1125Z" fill="black"/>
</svg>
