<svg width="35" height="35" viewBox="0 0 35 35" fill="none" xmlns="http://www.w3.org/2000/svg">
<g clip-path="url(#clip0_304_2)">
<path d="M17.5 32.8125C13.4389 32.8125 9.54408 31.1992 6.67243 28.3276C3.80078 25.4559 2.1875 21.5611 2.1875 17.5C2.1875 13.4389 3.80078 9.54408 6.67243 6.67243C9.54408 3.80078 13.4389 2.1875 17.5 2.1875C21.5611 2.1875 25.4559 3.80078 28.3276 6.67243C31.1992 9.54408 32.8125 13.4389 32.8125 17.5C32.8125 21.5611 31.1992 25.4559 28.3276 28.3276C25.4559 31.1992 21.5611 32.8125 17.5 32.8125ZM17.5 35C22.1413 35 26.5925 33.1563 29.8744 29.8744C33.1563 26.5925 35 22.1413 35 17.5C35 12.8587 33.1563 8.40752 29.8744 5.12563C26.5925 1.84375 22.1413 0 17.5 0C12.8587 0 8.40752 1.84375 5.12563 5.12563C1.84375 8.40752 0 12.8587 0 17.5C0 22.1413 1.84375 26.5925 5.12563 29.8744C8.40752 33.1563 12.8587 35 17.5 35V35Z" fill="white"/>
<path d="M19.5344 14.4112L14.525 15.0391L14.3456 15.8703L15.33 16.0519C15.9731 16.205 16.1 16.4369 15.96 17.0778L14.3456 24.6641C13.9213 26.6262 14.5753 27.5494 16.1131 27.5494C17.3053 27.5494 18.69 26.9981 19.3178 26.2413L19.5103 25.3312C19.0728 25.7162 18.4341 25.8694 18.0097 25.8694C17.4081 25.8694 17.1894 25.4472 17.3447 24.7034L19.5344 14.4112ZM19.6875 9.84375C19.6875 10.4239 19.457 10.9803 19.0468 11.3905C18.6366 11.8008 18.0802 12.0312 17.5 12.0312C16.9198 12.0312 16.3634 11.8008 15.9532 11.3905C15.543 10.9803 15.3125 10.4239 15.3125 9.84375C15.3125 9.26359 15.543 8.70719 15.9532 8.29695C16.3634 7.88672 16.9198 7.65625 17.5 7.65625C18.0802 7.65625 18.6366 7.88672 19.0468 8.29695C19.457 8.70719 19.6875 9.26359 19.6875 9.84375Z" fill="white"/>
</g>
<defs>
<clipPath id="clip0_304_2">
<rect width="35" height="35" fill="white"/>
</clipPath>
</defs>
</svg>
