<svg width="35" height="35" viewBox="0 0 35 35" fill="none" xmlns="http://www.w3.org/2000/svg">
<g clip-path="url(#clip0_302_4)">
<path d="M25.6856 22.6275C27.8038 19.7371 28.7525 16.1535 28.3419 12.5937C27.9314 9.03393 26.1918 5.7604 23.4714 3.42807C20.7509 1.09574 17.2501 -0.123392 13.6693 0.014581C10.0886 0.152554 6.69198 1.63746 4.15903 4.17221C1.62609 6.70697 0.143621 10.1046 0.00821116 13.6855C-0.127199 17.2663 1.09444 20.7663 3.42871 23.4851C5.76299 26.2039 9.03776 27.9411 12.5979 28.3491C16.158 28.7571 19.7408 27.8058 22.6297 25.6856H22.6275C22.6931 25.7731 22.7631 25.8562 22.8419 25.9372L31.2638 34.359C31.6739 34.7695 32.2304 35.0002 32.8106 35.0004C33.3909 35.0006 33.9475 34.7703 34.358 34.3601C34.7684 33.95 34.9992 33.3935 34.9994 32.8132C34.9996 32.233 34.7692 31.6764 34.3591 31.2659L25.9372 22.844C25.859 22.7649 25.7749 22.6917 25.6856 22.6253V22.6275ZM26.25 14.2187C26.25 15.7987 25.9388 17.3632 25.3342 18.8229C24.7296 20.2826 23.8433 21.6089 22.7261 22.7261C21.6089 23.8433 20.2826 24.7295 18.8229 25.3342C17.3632 25.9388 15.7987 26.25 14.2188 26.25C12.6388 26.25 11.0743 25.9388 9.6146 25.3342C8.1549 24.7295 6.82859 23.8433 5.71138 22.7261C4.59418 21.6089 3.70796 20.2826 3.10333 18.8229C2.49871 17.3632 2.18751 15.7987 2.18751 14.2187C2.18751 11.0278 3.45509 7.96764 5.71138 5.71135C7.96768 3.45505 11.0279 2.18748 14.2188 2.18748C17.4096 2.18748 20.4698 3.45505 22.7261 5.71135C24.9824 7.96764 26.25 11.0278 26.25 14.2187Z" fill="white"/>
</g>
<defs>
<clipPath id="clip0_302_4">
<rect width="35" height="35" fill="white"/>
</clipPath>
</defs>
</svg>
