<svg width="170" height="170" viewBox="0 0 170 170" fill="none" xmlns="http://www.w3.org/2000/svg">
<path d="M84.9958 0.837555C87.8995 0.837555 90.2562 3.19422 90.2562 6.09797V16.6188C90.2562 18.014 89.702 19.352 88.7155 20.3385C87.7289 21.325 86.3909 21.8792 84.9958 21.8792C83.6006 21.8792 82.2626 21.325 81.2761 20.3385C80.2896 19.352 79.7354 18.014 79.7354 16.6188V6.09797C79.7354 3.19422 82.092 0.837555 84.9958 0.837555ZM85.1978 127.172C108.382 127.172 127.176 108.382 127.176 85.1978C127.176 62.0099 108.382 43.2155 85.1978 43.2155C62.0099 43.2155 43.2155 62.0099 43.2155 85.1978C43.2155 108.382 62.0099 127.176 85.1978 127.176V127.172ZM85.1978 116.651C76.8548 116.651 68.8535 113.337 62.9541 107.437C57.0547 101.538 53.7405 93.5366 53.7405 85.1936C53.7405 76.8506 57.0547 68.8493 62.9541 62.9499C68.8535 57.0505 76.8548 53.7363 85.1978 53.7363C93.5408 53.7363 101.542 57.0505 107.441 62.9499C113.341 68.8493 116.655 76.8506 116.655 85.1936C116.655 93.5366 113.341 101.538 107.441 107.437C101.542 113.337 93.5408 116.651 85.1978 116.651ZM163.906 90.2646C165.301 90.2646 166.639 89.7104 167.626 88.7239C168.612 87.7374 169.167 86.3994 169.167 85.0042C169.167 83.6091 168.612 82.2711 167.626 81.2845C166.639 80.298 165.301 79.7438 163.906 79.7438H153.385C151.99 79.7438 150.652 80.298 149.666 81.2845C148.679 82.2711 148.125 83.6091 148.125 85.0042C148.125 86.3994 148.679 87.7374 149.666 88.7239C150.652 89.7104 151.99 90.2646 153.385 90.2646H163.906ZM84.9958 148.125C87.8995 148.125 90.2562 150.482 90.2562 153.385V163.906C90.2562 165.301 89.702 166.639 88.7155 167.626C87.7289 168.612 86.3909 169.167 84.9958 169.167C83.6006 169.167 82.2626 168.612 81.2761 167.626C80.2896 166.639 79.7354 165.301 79.7354 163.906V153.385C79.7354 150.482 82.092 148.125 84.9958 148.125ZM16.6146 90.2604C18.0097 90.2604 19.3477 89.7062 20.3343 88.7197C21.3208 87.7332 21.875 86.3952 21.875 85C21.875 83.6049 21.3208 82.2668 20.3343 81.2803C19.3477 80.2938 18.0097 79.7396 16.6146 79.7396H6.09375C4.6986 79.7396 3.3606 80.2938 2.37408 81.2803C1.38756 82.2668 0.833336 83.6049 0.833336 85C0.833336 86.3952 1.38756 87.7332 2.37408 88.7197C3.3606 89.7062 4.6986 90.2604 6.09375 90.2604H16.6146ZM23.4153 23.4111C23.9037 22.9224 24.4837 22.5348 25.122 22.2704C25.7603 22.0059 26.4445 21.8698 27.1354 21.8698C27.8263 21.8698 28.5105 22.0059 29.1488 22.2704C29.7871 22.5348 30.3671 22.9224 30.8556 23.4111L41.3764 33.9319C41.865 34.4204 42.2525 35.0004 42.5169 35.6387C42.7813 36.277 42.9174 36.9612 42.9174 37.6521C42.9174 38.3429 42.7813 39.0271 42.5169 39.6654C42.2525 40.3037 41.865 40.8837 41.3764 41.3722C40.8879 41.8608 40.3079 42.2483 39.6696 42.5127C39.0313 42.7771 38.3471 42.9132 37.6562 42.9132C36.9654 42.9132 36.2812 42.7771 35.6429 42.5127C35.0046 42.2483 34.4246 41.8608 33.9361 41.3722L23.4153 30.8514C22.9266 30.3629 22.539 29.7829 22.2746 29.1446C22.0101 28.5063 21.874 27.8221 21.874 27.1312C21.874 26.4403 22.0101 25.7561 22.2746 25.1178C22.539 24.4795 22.9266 23.8995 23.4153 23.4111ZM30.8556 146.585C30.367 147.073 29.7871 147.461 29.1488 147.725C28.5105 147.99 27.8263 148.126 27.1354 148.126C26.4445 148.126 25.7604 147.99 25.1221 147.725C24.4838 147.461 23.9038 147.073 23.4153 146.585C22.9267 146.096 22.5392 145.516 22.2748 144.878C22.0104 144.24 21.8743 143.555 21.8743 142.865C21.8743 142.174 22.0104 141.49 22.2748 140.851C22.5392 140.213 22.9267 139.633 23.4153 139.144L33.9361 128.624C34.4246 128.135 35.0046 127.748 35.6429 127.483C36.2812 127.219 36.9654 127.083 37.6562 127.083C38.3471 127.083 39.0313 127.219 39.6696 127.483C40.3079 127.748 40.8879 128.135 41.3764 128.624C41.865 129.112 42.2525 129.692 42.5169 130.33C42.7813 130.969 42.9174 131.653 42.9174 132.344C42.9174 133.035 42.7813 133.719 42.5169 134.357C42.2525 134.995 41.865 135.575 41.3764 136.064L30.8556 146.585ZM146.585 23.4111C145.598 22.4255 144.261 21.8719 142.867 21.8719C141.472 21.8719 140.135 22.4255 139.149 23.4111L128.628 33.9319C127.641 34.9185 127.087 36.2567 127.087 37.6521C127.087 39.0474 127.641 40.3856 128.628 41.3722C129.614 42.3589 130.953 42.9132 132.348 42.9132C133.743 42.9132 135.081 42.3589 136.068 41.3722L146.589 30.8514C147.078 30.3629 147.465 29.7829 147.73 29.1446C147.994 28.5063 148.13 27.8221 148.13 27.1312C148.13 26.4403 147.994 25.7561 147.73 25.1178C147.465 24.4795 147.078 23.8995 146.589 23.4111H146.585ZM139.149 146.585C140.135 147.571 141.473 148.126 142.869 148.126C144.264 148.126 145.602 147.571 146.589 146.585C147.576 145.598 148.13 144.26 148.13 142.865C148.13 141.469 147.576 140.131 146.589 139.144L136.068 128.624C135.081 127.637 133.743 127.083 132.348 127.083C130.953 127.083 129.614 127.637 128.628 128.624C127.641 129.61 127.087 130.948 127.087 132.344C127.087 133.739 127.641 135.077 128.628 136.064L139.149 146.585Z" fill="white"/>
</svg>
